# xmcd
#
# Track frame offsets:
#  150
#  10600
#  24992
#  35205
#  48266
#  59594
#  72377
#  86922
#  96257
#  106004
#  119183
#
# Disc length: 1784 seconds
#
# Revision: 0
# Processed by: cddbd v1.5.1PL0 Copyright (c) Steve Scherf et al.
# Submitted via: Collectorz.com Music Collector 6.9
#
DISCID=9606f60b
DTITLE=Various Artist - Tumbling Tumbleweeds  (Record 4 of 7)
DYEAR=1900
DGENRE=Country
TTITLE0=Bob Wills and His Texas Playboys - Deep In The Heart Of Texas
TTITLE1=Arnold, Eddy - The Streets of Laredo
TTITLE2=Hamilton IV, George - Abilene
TTITLE3=Autry, Gene - The Yellow Rose of Texas
TTITLE4=Reed, Jerry - El Paso
TTITLE5=T. Texas Tyler - Oklahoma Hills
TTITLE6=The Sons Of The Pioneers - Hills of Old Wyomin'
TTITLE7=Snow, Hank - Cross The Brazos ao Waco
TTITLE8=The Sons Of The Pioneers - Moonlight on The Colorado
TTITLE9=Jimmy Wakely - The Call of The Canyon
TTITLE10=Autry, Gene - Louisiana Moon
EXTD=
EXTT0=
EXTT1=
EXTT2=
EXTT3=
EXTT4=
EXTT5=
EXTT6=
EXTT7=
EXTT8=
EXTT9=
EXTT10=
PLAYORDER=
